<?xml version="1.0" encoding="utf-8"?>
<!-- Generator: Adobe Illustrator 18.1.1, SVG Export Plug-In . SVG Version: 6.00 Build 0)  -->
<svg version="1.1" id="Layer_1" xmlns="http://www.w3.org/2000/svg" xmlns:xlink="http://www.w3.org/1999/xlink" x="0px" y="0px"
	 viewBox="0 0 857.5 214.5" enable-background="new 0 0 857.5 214.5" xml:space="preserve">
<g>
	<path fill="#80D1E8" d="M198.1,45.1c0,0-9.5-5.4-38.5,21c0,0-36.3,33-49.2,78.2l-2.5,19c0,0-29-0.8-33.6-11.8
		c0,0-12.9,11.3-11.5-13.6c0,0,2-34.2,50.8-77.1C113.5,60.8,157.5,16,198.1,45.1z"/>
	<path fill="#ED86B6" d="M62.3,152.7c0,0,12.2,53.9,43.9,48.6c0,0-8.4-0.5-0.7-35.5C111,140.5,62.3,152.7,62.3,152.7z"/>
	<path fill="#A994C6" d="M90.9,198.4c-3.5,0.3,18.6,12.3,52.8-10.6c8.1-5.5,26.8-27.7,24.8-31.5c-3-5.4-35.3,4.5-41.2,14.3
		C121.6,180.1,109.7,196.6,90.9,198.4z"/>
	<path fill="#6CBD45" d="M61.3,57.5l40.9,1.7c0,0,20.4,0.9,33.9,12.2c0,0,13.7,9.9,37.4,14.9c0,0,30.2,5.2,36.1,16
		c0,0,1.9,7.5-8.3,15.4c0,0-19.9,12.8-27.6,13.5c0,0-11.7-1.6-24.3-13.8C149.3,117.4,93.9,57.1,61.3,57.5z"/>
	<path fill="#FAAA2C" d="M198.1,45.1c0,0,13.4,13.8,4.1,42.3c0,0-22.4,98.8-54.9,61.2c0,0,22.6-47.8,30.8-70.6c0,0,6.2-20,0.4-41.6
		C178.4,36.3,191.7,38.8,198.1,45.1z"/>
	<path fill="#FFDD05" d="M36.2,127.8C20,110.6,21.6,55.6,61.3,57.5c0,0,12.2,0.7,18.3,4.8c0,0-24.7,10.1-32.2,34.6
		c0,0-5.9,16,2,38.6c0,0,3.6,8.2-2.2,1.7C45.6,135.3,40.6,132.5,36.2,127.8z"/>
	<path fill="#EF4F24" d="M36.2,127.8c0,0,13.4,14.2,61.2,16.4c0,0,65.4-0.4,103.8-26.5c0,0,9-5.8,8.3-15.4c0,0,10.7,37,1.6,51.1
		c0,0-39.3,38.9-111.8,20.3C99.3,173.6,79.5,173.6,36.2,127.8z"/>
</g>
<g>
	<g>
		<path fill="#FFFFFF" d="M269.9,70.6h7.8v19.7h28.4v7.8h-28.4v48.6c0,3.2,1.2,6,3.5,8.3c2.3,2.3,5.1,3.5,8.4,3.5
			c3.2,0,6-1.2,8.3-3.5c2.3-2.3,3.5-5.1,3.5-8.3h7.8c0,2.7-0.5,5.3-1.5,7.7c-1,2.4-2.4,4.5-4.2,6.2c-1.8,1.8-3.9,3.2-6.2,4.2
			c-2.4,1.1-4.9,1.6-7.6,1.6s-5.3-0.5-7.7-1.6c-2.4-1.1-4.5-2.5-6.2-4.2c-1.8-1.8-3.2-3.8-4.2-6.2c-1.1-2.4-1.6-5-1.6-7.7V70.6z"/>
		<path fill="#FFFFFF" d="M352.9,167.2c-5.4,0-10.5-1-15.4-3.1c-4.8-2.1-9-4.9-12.6-8.4c-3.6-3.6-6.4-7.7-8.4-12.5
			c-2.1-4.8-3.1-9.9-3.1-15.3s1-10.5,3.1-15.4c2.1-4.8,4.9-9,8.4-12.6c3.6-3.6,7.8-6.4,12.6-8.4c4.8-2.1,9.9-3.1,15.4-3.1
			c5.4,0,10.5,1,15.3,3.1c4.8,2.1,8.9,4.9,12.5,8.4c3.6,3.6,6.4,7.8,8.4,12.6c2.1,4.8,3.1,9.9,3.1,15.4c0,0.7,0,1.4,0,2
			c0,0.6-0.1,1.3-0.2,2h-1.8h-68.6c0.5,3.9,1.7,7.5,3.5,10.8c1.8,3.3,4.1,6.2,6.8,8.7c2.8,2.5,5.9,4.5,9.6,5.9
			c3.6,1.4,7.4,2.1,11.4,2.1c2.9,0,5.7-0.6,8.3-1.7c2.6-1.1,4.9-2.7,6.9-4.7l5.6,5.6c-2.6,2.6-5.7,4.7-9.3,6.2
			C360.9,166.4,357,167.2,352.9,167.2z M384.1,124c-0.5-3.9-1.7-7.5-3.5-10.8c-1.8-3.3-4.1-6.2-6.8-8.7c-2.8-2.5-5.9-4.5-9.5-5.9
			c-3.6-1.4-7.4-2.1-11.4-2.1c-4,0-7.8,0.7-11.4,2.1c-3.6,1.4-6.8,3.4-9.6,5.9c-2.8,2.5-5,5.4-6.8,8.7c-1.8,3.3-3,6.9-3.5,10.8
			H384.1z"/>
		<path fill="#FFFFFF" d="M411.5,165.2h-7.8v-37.6c0-5.4,1-10.5,3.1-15.4c2.1-4.8,4.9-9,8.4-12.6c3.6-3.6,7.7-6.4,12.5-8.4
			c4.8-2.1,9.9-3.1,15.3-3.1v8c-4.3,0-8.4,0.8-12.2,2.5c-3.8,1.7-7.1,3.9-10,6.7c-2.9,2.8-5.1,6.1-6.8,10c-1.7,3.9-2.5,8-2.5,12.3
			V165.2z"/>
		<path fill="#FFFFFF" d="M459.3,165.2h-7.8v-37.6c0-5.4,1-10.5,3.1-15.4c2.1-4.8,4.9-9,8.4-12.6c3.6-3.6,7.7-6.4,12.5-8.4
			c4.8-2.1,9.9-3.1,15.3-3.1v8c-4.3,0-8.4,0.8-12.2,2.5c-3.8,1.7-7.1,3.9-10,6.7c-2.9,2.8-5.1,6.1-6.8,10c-1.7,3.9-2.5,8-2.5,12.3
			V165.2z"/>
		<path fill="#FFFFFF" d="M531.3,88c5.4,0,10.5,1,15.3,3.1c4.8,2.1,9,4.9,12.6,8.4c3.6,3.6,6.4,7.8,8.4,12.6
			c2.1,4.8,3.1,9.9,3.1,15.4v37.6h-8v-14c-3.5,4.8-8,8.6-13.5,11.4c-5.5,2.8-11.5,4.2-18,4.2c-5.4,0-10.5-1-15.3-3.1
			c-4.8-2.1-8.9-4.9-12.5-8.4c-3.6-3.6-6.4-7.7-8.4-12.5c-2.1-4.8-3.1-9.9-3.1-15.3c0-5.4,1-10.5,3.1-15.4c2.1-4.8,4.9-9,8.4-12.6
			c3.6-3.6,7.7-6.4,12.5-8.4C520.7,89.1,525.8,88,531.3,88z M531.3,96c-4.3,0-8.4,0.8-12.2,2.5c-3.8,1.7-7.1,3.9-10,6.7
			c-2.9,2.8-5.1,6.1-6.8,10c-1.7,3.9-2.5,8-2.5,12.3c0,4.3,0.8,8.4,2.5,12.2c1.7,3.8,3.9,7.1,6.8,10s6.2,5.1,10,6.8
			c3.8,1.7,7.9,2.5,12.2,2.5c4.3,0,8.4-0.8,12.3-2.5c3.9-1.7,7.2-3.9,10-6.8c2.8-2.9,5-6.2,6.7-10c1.7-3.8,2.5-7.9,2.5-12.2
			c0-4.3-0.8-8.4-2.5-12.3c-1.7-3.9-3.9-7.2-6.7-10c-2.8-2.8-6.1-5-10-6.7C539.7,96.8,535.6,96,531.3,96z"/>
		<path fill="#FFFFFF" d="M592.1,165.2h-7.8v-37.6c0-5.4,1-10.5,3.1-15.4c2.1-4.8,4.9-9,8.4-12.6c3.6-3.6,7.7-6.4,12.5-8.4
			c4.8-2.1,9.9-3.1,15.3-3.1v8c-4.3,0-8.4,0.8-12.2,2.5c-3.8,1.7-7.1,3.9-10,6.7c-2.9,2.8-5.1,6.1-6.8,10c-1.7,3.9-2.5,8-2.5,12.3
			V165.2z"/>
		<path fill="#FFFFFF" d="M633.4,52.4h7.8v12.8h-7.8V52.4z M633.4,90h7.8v75.2h-7.8V90z"/>
		<path fill="#FFFFFF" d="M687.8,166.8c-4.1,0-8-0.8-11.5-2.3c-3.6-1.6-6.7-3.7-9.3-6.3c-2.7-2.7-4.8-5.8-6.3-9.3
			c-1.6-3.6-2.3-7.4-2.3-11.5V89.9h7.8v47.4c0,3,0.6,5.8,1.7,8.5c1.1,2.7,2.6,5,4.6,6.9c2,2,4.3,3.5,6.9,4.6
			c2.7,1.1,5.5,1.7,8.5,1.7s5.8-0.6,8.4-1.7c2.6-1.1,4.9-2.6,6.8-4.6c2-2,3.5-4.3,4.6-6.9c1.1-2.7,1.7-5.5,1.7-8.5V89.9h8v47.4
			c0,4.1-0.8,8-2.3,11.5c-1.6,3.6-3.7,6.7-6.3,9.3c-2.7,2.7-5.8,4.8-9.4,6.3S691.8,166.8,687.8,166.8z"/>
		<path fill="#FFFFFF" d="M759.2,88.2c5.4,0,10.4,1.4,14.9,4.1c4.5,2.7,8.1,6.3,10.7,10.8c2.6-4.5,6.1-8.1,10.6-10.8
			c4.5-2.7,9.5-4.1,15-4.1c4,0,7.8,0.8,11.4,2.3c3.6,1.6,6.7,3.7,9.4,6.3c2.7,2.7,4.8,5.8,6.3,9.4c1.6,3.6,2.3,7.4,2.3,11.4v47.6h-8
			v-47.6c0-3-0.6-5.8-1.7-8.4c-1.1-2.6-2.6-4.9-4.6-6.8c-2-2-4.2-3.5-6.8-4.6c-2.6-1.1-5.4-1.7-8.4-1.7s-5.8,0.6-8.5,1.7
			c-2.7,1.1-5,2.6-6.9,4.6c-2,2-3.5,4.2-4.6,6.8c-1.1,2.6-1.7,5.4-1.7,8.4v47.6h-7.8v-47.6c0-3-0.6-5.8-1.7-8.4
			c-1.2-2.6-2.7-4.9-4.7-6.8c-2-2-4.2-3.5-6.8-4.6c-2.6-1.1-5.4-1.7-8.4-1.7s-5.8,0.6-8.5,1.7c-2.7,1.1-5,2.6-6.9,4.6
			c-2,2-3.5,4.2-4.6,6.8c-1.1,2.6-1.7,5.4-1.7,8.4v47.6h-7.8v-47.6c0-4,0.8-7.8,2.3-11.4c1.6-3.6,3.7-6.7,6.3-9.4
			c2.7-2.7,5.8-4.8,9.3-6.3C751.3,89,755.1,88.2,759.2,88.2z"/>
	</g>
</g>
</svg>
